<svg width="39" height="39" viewBox="0 0 39 39" fill="none" xmlns="http://www.w3.org/2000/svg">
<mask id="mask0_2939_48" style="mask-type:alpha" maskUnits="userSpaceOnUse" x="0" y="0" width="39" height="39">
<rect width="38.1973" height="38.1973" fill="#D9D9D9"/>
</mask>
<g mask="url(#mask0_2939_48)">
<path d="M15.72 18.3153C14.7895 17.3848 14.3242 16.2584 14.3242 14.936C14.3242 13.614 14.7895 12.4877 15.72 11.5572C16.6503 10.6266 17.7766 10.1614 19.0989 10.1614C20.4212 10.1614 21.5475 10.6266 22.4777 11.5572C23.4083 12.4877 23.8735 13.614 23.8735 14.936C23.8735 16.2584 23.4083 17.3848 22.4777 18.3153C21.5475 19.2456 20.4212 19.7107 19.0989 19.7107C17.7766 19.7107 16.6503 19.2456 15.72 18.3153ZM7.95801 29.6277V27.0076C7.95801 26.3505 8.14926 25.7358 8.53176 25.1634C8.91453 24.5912 9.42927 24.1469 10.076 23.8304C11.5779 23.1103 13.0807 22.5701 14.5844 22.2098C16.0882 21.8499 17.593 21.6699 19.0989 21.6699C20.6048 21.6699 22.1096 21.8499 23.6133 22.2098C25.1171 22.5701 26.6199 23.1103 28.1218 23.8304C28.7685 24.1469 29.2832 24.5912 29.666 25.1634C30.0485 25.7358 30.2397 26.3505 30.2397 27.0076V29.6277H7.95801Z" fill="white"/>
</g>
</svg>
