<svg width="15" height="15" viewBox="0 0 15 15" fill="none" xmlns="http://www.w3.org/2000/svg">
<path d="M8.87871 0.13661L8.43045 0.0736956C7.08326 -0.12082 5.70852 0.0716158 4.46652 0.628569C3.22451 1.18552 2.16641 2.08404 1.41556 3.21939C0.616678 4.30463 0.140443 5.59339 0.0416641 6.93735C-0.0571153 8.2813 0.225574 9.62584 0.857201 10.8162C0.921842 10.9355 0.962088 11.0665 0.975589 11.2015C0.989091 11.3366 0.97558 11.4729 0.935843 11.6027C0.61341 12.7115 0.314569 13.8282 0 15L0.393211 14.882C1.45488 14.5989 2.51655 14.3158 3.57822 14.0563C3.80231 14.0097 4.03523 14.0316 4.24668 14.1192C5.1992 14.5841 6.24013 14.8398 7.29961 14.8693C8.3591 14.8988 9.41264 14.7013 10.3895 14.29C11.3664 13.8788 12.244 13.2634 12.9635 12.4851C13.6829 11.7068 14.2276 10.7836 14.5609 9.77748C14.8942 8.77135 15.0084 7.70557 14.8959 6.65165C14.7834 5.59774 14.4468 4.58009 13.9086 3.66698C13.3705 2.75388 12.6432 1.96645 11.7757 1.35755C10.9081 0.748647 9.92038 0.332354 8.87871 0.13661ZM10.8605 10.4545C10.5747 10.7104 10.2261 10.8859 9.85039 10.9633C9.47463 11.0407 9.08509 11.0171 8.72143 10.8949C7.07383 10.4302 5.64435 9.39644 4.68708 7.97724C4.32153 7.47519 4.02773 6.92464 3.81415 6.34148C3.69843 6.00315 3.67756 5.63958 3.75381 5.29022C3.83006 4.94086 4.00051 4.61905 4.24668 4.3597C4.36652 4.20675 4.52965 4.09344 4.71481 4.03453C4.89996 3.97561 5.09857 3.97383 5.28476 4.0294C5.44205 4.06872 5.55214 4.29679 5.6937 4.4698C5.80904 4.79485 5.94273 5.11204 6.09478 5.42137C6.20993 5.57905 6.25802 5.77589 6.22855 5.96891C6.19908 6.16192 6.09445 6.33544 5.93749 6.45158C5.5836 6.76615 5.63865 7.02567 5.89031 7.37956C6.44635 8.18134 7.21411 8.81297 8.10802 9.20406C8.35967 9.31416 8.54842 9.33776 8.71356 9.07824C8.78434 8.976 8.87871 8.88949 8.95736 8.79512C9.41348 8.22103 9.27192 8.2289 9.99543 8.54347C10.2261 8.64046 10.4489 8.75318 10.6639 8.88163C10.8762 9.00746 11.1987 9.14115 11.2458 9.32989C11.2912 9.53465 11.2793 9.74796 11.2113 9.94637C11.1433 10.1448 11.0219 10.3206 10.8605 10.4545Z" fill="#910E4B"/>
</svg>
