<svg width="19" height="19" viewBox="0 0 19 19" fill="none" xmlns="http://www.w3.org/2000/svg">
<g clip-path="url(#clip0_2788_1688)">
<path d="M0.405547 9.38631C0.405102 10.9827 0.825477 12.5414 1.62481 13.9153L0.329102 18.6095L5.17054 17.3499C6.50962 18.0732 8.00996 18.4522 9.5346 18.4523H9.53861C14.5718 18.4523 18.6689 14.3885 18.671 9.39346C18.672 6.97302 17.7229 4.697 15.9985 2.98464C14.2744 1.27243 11.9814 0.328986 9.53824 0.327881C4.5045 0.327881 0.407699 4.39152 0.405621 9.38631" fill="url(#paint0_linear_2788_1688)"/>
<path d="M0.0794141 9.38335C0.0788945 11.0372 0.514336 12.6516 1.34217 14.0747L0 18.9372L5.01504 17.6324C6.39684 18.38 7.95261 18.7741 9.5357 18.7747H9.53978C14.7535 18.7747 18.9978 14.5647 19 9.39086C19.0009 6.88345 18.0176 4.52561 16.2316 2.75191C14.4454 0.978426 12.0704 0.00103101 9.53978 0C4.32517 0 0.0814922 4.20946 0.0794141 9.38335ZM3.06605 13.8296L2.8788 13.5347C2.09163 12.2928 1.67616 10.8576 1.67675 9.38394C1.67838 5.08353 5.20555 1.58481 9.54275 1.58481C11.6431 1.58569 13.6171 2.39812 15.1017 3.87217C16.5863 5.34636 17.4033 7.30602 17.4027 9.39027C17.4008 13.6907 13.8736 17.1898 9.53978 17.1898H9.53666C8.12554 17.1891 6.74159 16.8131 5.53464 16.1025L5.24741 15.9335L2.27139 16.7077L3.06605 13.8296Z" fill="url(#paint1_linear_2788_1688)"/>
<path d="M7.17545 5.46052C6.99836 5.06999 6.812 5.06211 6.6436 5.05526C6.5057 5.04937 6.34806 5.04981 6.19057 5.04981C6.03293 5.04981 5.7768 5.10865 5.5603 5.34321C5.34358 5.57798 4.73291 6.14533 4.73291 7.29925C4.73291 8.45317 5.57997 9.56842 5.69805 9.72506C5.81628 9.88141 7.33331 12.3252 9.73592 13.2653C11.7327 14.0466 12.1391 13.8912 12.5724 13.852C13.0059 13.813 13.971 13.2848 14.1679 12.7372C14.3649 12.1895 14.3649 11.7201 14.3059 11.622C14.2468 11.5243 14.0891 11.4656 13.8528 11.3484C13.6164 11.2311 12.4542 10.6636 12.2375 10.5854C12.0208 10.5072 11.8633 10.4681 11.7056 10.703C11.548 10.9375 11.0953 11.4656 10.9573 11.622C10.8195 11.7788 10.6815 11.7983 10.4452 11.681C10.2087 11.5634 9.44743 11.316 8.54427 10.517C7.84156 9.89533 7.36716 9.12759 7.22926 8.89275C7.09136 8.65827 7.21449 8.53116 7.33302 8.41429C7.43922 8.3092 7.56948 8.14041 7.68778 8.0035C7.80564 7.86653 7.84498 7.7688 7.9238 7.61238C8.00269 7.45582 7.96321 7.31884 7.9042 7.20153C7.84498 7.08421 7.38564 5.92425 7.17545 5.46052Z" fill="white"/>
</g>
<defs>
<linearGradient id="paint0_linear_2788_1688" x1="917.424" y1="1828.49" x2="917.424" y2="0.327881" gradientUnits="userSpaceOnUse">
<stop stop-color="#1FAF38"/>
<stop offset="1" stop-color="#60D669"/>
</linearGradient>
<linearGradient id="paint1_linear_2788_1688" x1="950" y1="1893.72" x2="950" y2="0" gradientUnits="userSpaceOnUse">
<stop stop-color="#F9F9F9"/>
<stop offset="1" stop-color="white"/>
</linearGradient>
<clipPath id="clip0_2788_1688">
<rect width="19" height="19" fill="white"/>
</clipPath>
</defs>
</svg>
