<svg width="47" height="53" viewBox="0 0 47 53" fill="none" xmlns="http://www.w3.org/2000/svg">
<path d="M34.624 19.0653C38.0328 21.5019 42.2088 22.9356 46.7189 22.9356V14.2573C45.8653 14.2576 45.014 14.1685 44.1789 13.9915V20.8225C39.6691 20.8225 35.4936 19.389 32.0842 16.9526V34.6626C32.0842 43.5222 24.9017 50.7036 16.0423 50.7036C12.7367 50.7036 9.66409 49.7043 7.11182 47.9904C10.0249 50.9689 14.0874 52.8165 18.5816 52.8165C27.4417 52.8165 34.6244 45.6351 34.6244 36.7751V19.0653H34.624ZM37.7576 10.31C36.0154 8.40692 34.8715 5.9475 34.624 3.22845V2.1123H32.217C32.8229 5.56809 34.8897 8.52049 37.7576 10.31ZM12.7153 41.1921C11.7419 39.9161 11.2158 38.3549 11.2183 36.7498C11.2183 32.6978 14.5035 29.4124 18.5566 29.4124C19.3119 29.412 20.0627 29.5279 20.7826 29.7562V20.8839C19.9413 20.7687 19.0923 20.7195 18.2436 20.7376V27.6433C17.5233 27.415 16.7722 27.2991 16.0166 27.2997C11.9636 27.2997 8.67859 30.5848 8.67859 34.6373C8.67859 37.5027 10.3205 39.9835 12.7153 41.1921Z" fill="#FF004F"/>
<path d="M32.0844 16.9524C35.4941 19.3889 39.6691 20.8223 44.1791 20.8223V13.9913C41.6617 13.455 39.4332 12.1397 37.7576 10.31C34.8896 8.52031 32.8232 5.56791 32.2173 2.1123H25.8949V36.7748C25.8805 40.8157 22.6009 44.0877 18.5565 44.0877C16.1734 44.0877 14.056 42.9518 12.7152 41.1919C10.3208 39.9835 8.67864 37.5026 8.67864 34.6374C8.67864 30.5853 11.9637 27.2999 16.0166 27.2999C16.7932 27.2999 17.5416 27.4208 18.2437 27.6435V20.7378C9.53987 20.9176 2.54004 28.029 2.54004 36.775C2.54004 41.1409 4.28311 45.0988 7.11224 47.9908C9.66451 49.7043 12.7369 50.704 16.0427 50.704C24.9023 50.704 32.0846 43.522 32.0846 34.6626L32.0844 16.9524Z" fill="black"/>
<path d="M44.1789 13.9915V12.1448C41.9088 12.1481 39.6836 11.5124 37.7575 10.3104C39.4624 12.1768 41.7074 13.4639 44.1789 13.9918M32.2169 2.11251C32.1592 1.78232 32.1149 1.44992 32.084 1.11614V0H23.3543V34.6628C23.3404 38.7034 20.0609 41.9754 16.0163 41.9754C14.8697 41.9771 13.7388 41.7089 12.7148 41.1926C14.0557 42.9522 16.1731 44.0879 18.5562 44.0879C22.6004 44.0879 25.8803 40.8163 25.8945 36.7753V2.11269L32.2169 2.11251ZM18.2439 20.738V18.7717C17.5144 18.6721 16.779 18.6222 16.0428 18.6224C7.18233 18.6224 0 25.8042 0 34.6628C0 40.2169 2.82274 45.1116 7.11225 47.9908C4.28312 45.099 2.54005 41.1409 2.54005 36.7752C2.54005 28.0293 9.53969 20.9178 18.2439 20.738Z" fill="#00F2EA"/>
</svg>
