<svg width="53" height="53" viewBox="0 0 53 53" fill="none" xmlns="http://www.w3.org/2000/svg">
<path d="M40.5396 0H12.4101C5.55618 0 0 5.55618 0 12.4101V40.5396C0 47.3935 5.55618 52.9496 12.4101 52.9496H40.5396C47.3935 52.9496 52.9496 47.3935 52.9496 40.5396V12.4101C52.9496 5.55618 47.3935 0 40.5396 0Z" fill="url(#paint0_radial_2788_1401)"/>
<path d="M40.5396 0H12.4101C5.55618 0 0 5.55618 0 12.4101V40.5396C0 47.3935 5.55618 52.9496 12.4101 52.9496H40.5396C47.3935 52.9496 52.9496 47.3935 52.9496 40.5396V12.4101C52.9496 5.55618 47.3935 0 40.5396 0Z" fill="url(#paint1_radial_2788_1401)"/>
<path d="M26.4768 5.79102C20.8596 5.79102 20.1545 5.81563 17.9484 5.91594C15.7464 6.01688 14.2434 6.3654 12.9283 6.8769C11.5678 7.40515 10.4138 8.11191 9.26426 9.26191C8.11364 10.4117 7.40688 11.5656 6.87697 12.9256C6.36402 14.241 6.01509 15.7447 5.91602 17.9456C5.81736 20.1519 5.7915 20.8573 5.7915 26.4747C5.7915 32.0921 5.81632 32.7949 5.91643 35.001C6.01778 37.203 6.3663 38.706 6.87739 40.0211C7.40605 41.3817 8.11281 42.5356 9.26281 43.6852C10.4122 44.8358 11.5661 45.5442 12.9256 46.0725C14.2417 46.584 15.745 46.9325 17.9465 47.0334C20.1529 47.1337 20.8573 47.1583 26.4743 47.1583C32.0922 47.1583 32.795 47.1337 35.0011 47.0334C37.203 46.9325 38.7078 46.584 40.0239 46.0725C41.3838 45.5442 42.5361 44.8358 43.6852 43.6852C44.8359 42.5356 45.5424 41.3817 46.0725 40.0217C46.5809 38.706 46.9301 37.2026 47.0335 35.0014C47.1325 32.7953 47.1584 32.0921 47.1584 26.4747C47.1584 20.8573 47.1325 20.1524 47.0335 17.9461C46.9301 15.7441 46.5809 14.2412 46.0725 12.9262C45.5424 11.5656 44.8359 10.4117 43.6852 9.26191C42.5348 8.11149 41.3842 7.40474 40.0226 6.8771C38.704 6.3654 37.2001 6.01667 34.9982 5.91594C32.7919 5.81563 32.0895 5.79102 26.4704 5.79102H26.4768ZM24.6213 9.51838C25.1721 9.51755 25.7866 9.51838 26.4768 9.51838C31.9995 9.51838 32.6539 9.53824 34.8348 9.63731C36.8514 9.72956 37.946 10.0665 38.6751 10.3496C39.6404 10.7244 40.3285 11.1726 41.052 11.8968C41.776 12.6207 42.224 13.3101 42.5998 14.2754C42.8829 15.0034 43.2203 16.098 43.3121 18.1146C43.4112 20.2951 43.4327 20.9499 43.4327 26.4699C43.4327 31.9899 43.4112 32.645 43.3121 34.8252C43.2199 36.8418 42.8829 37.9364 42.5998 38.6647C42.225 39.63 41.776 40.3173 41.052 41.0408C40.3281 41.7647 39.6408 42.2127 38.6751 42.5877C37.9468 42.8721 36.8514 43.2082 34.8348 43.3005C32.6543 43.3995 31.9995 43.421 26.4768 43.421C20.9539 43.421 20.2993 43.3995 18.119 43.3005C16.1024 43.2074 15.0078 42.8704 14.2781 42.5873C13.313 42.2123 12.6235 41.7643 11.8995 41.0404C11.1756 40.3165 10.7276 39.6287 10.3518 38.663C10.0686 37.9348 9.73129 36.8402 9.63945 34.8235C9.54038 32.6431 9.52052 31.9883 9.52052 26.4647C9.52052 20.9412 9.54038 20.2899 9.63945 18.1095C9.7317 16.0928 10.0686 14.9983 10.3518 14.2692C10.7268 13.3039 11.1756 12.6145 11.8997 11.8906C12.6239 11.1666 13.313 10.7184 14.2783 10.3428C15.0074 10.0584 16.1024 9.72232 18.119 9.62966C20.0271 9.54341 20.7665 9.51755 24.6213 9.51321V9.51838ZM37.5176 12.9527C36.1474 12.9527 35.0356 14.0634 35.0356 15.4338C35.0356 16.8041 36.1474 17.9159 37.5176 17.9159C38.8879 17.9159 39.9997 16.8041 39.9997 15.4338C39.9997 14.0636 38.8879 12.9518 37.5176 12.9518V12.9527ZM26.4768 15.8527C20.611 15.8527 15.855 20.6086 15.855 26.4747C15.855 32.3407 20.611 37.0944 26.4768 37.0944C32.3428 37.0944 37.0971 32.3407 37.0971 26.4747C37.0971 20.6088 32.3424 15.8527 26.4764 15.8527H26.4768ZM26.4768 19.5801C30.2844 19.5801 33.3714 22.6666 33.3714 26.4747C33.3714 30.2823 30.2844 33.3693 26.4768 33.3693C22.6692 33.3693 19.5824 30.2823 19.5824 26.4747C19.5824 22.6666 22.669 19.5801 26.4768 19.5801Z" fill="white"/>
<defs>
<radialGradient id="paint0_radial_2788_1401" cx="0" cy="0" r="1" gradientUnits="userSpaceOnUse" gradientTransform="translate(14.0647 57.0278) rotate(-90) scale(52.477 48.8078)">
<stop stop-color="#FFDD55"/>
<stop offset="0.1" stop-color="#FFDD55"/>
<stop offset="0.5" stop-color="#FF543E"/>
<stop offset="1" stop-color="#C837AB"/>
</radialGradient>
<radialGradient id="paint1_radial_2788_1401" cx="0" cy="0" r="1" gradientUnits="userSpaceOnUse" gradientTransform="translate(-8.86927 3.81423) rotate(78.681) scale(23.4575 96.6926)">
<stop stop-color="#3771C8"/>
<stop offset="0.128" stop-color="#3771C8"/>
<stop offset="1" stop-color="#6600FF" stop-opacity="0"/>
</radialGradient>
</defs>
</svg>
