<svg width="19" height="20" viewBox="0 0 19 20" fill="none" xmlns="http://www.w3.org/2000/svg">
<path fill-rule="evenodd" clip-rule="evenodd" d="M5.45921 4.763V3.75C5.45921 2.75544 5.8543 1.80161 6.55756 1.09835C7.26082 0.395088 8.21465 0 9.20921 0C10.2038 0 11.1576 0.395088 11.8609 1.09835C12.5641 1.80161 12.9592 2.75544 12.9592 3.75V4.763C14.2562 4.8 15.0462 4.933 15.6512 5.43C16.4812 6.11 16.7112 7.264 17.1742 9.573L17.7742 12.573C18.4382 15.893 18.7702 17.553 17.8702 18.652C16.9702 19.751 15.2762 19.75 11.8892 19.75H6.52921C3.14321 19.75 1.44921 19.75 0.549208 18.652C-0.350792 17.554 -0.0187918 15.894 0.645208 12.573L1.24521 9.573C1.70721 7.264 1.93821 6.11 2.76721 5.43C3.37321 4.934 4.16321 4.8 5.46021 4.763M6.95921 3.75C6.95921 3.15326 7.19626 2.58097 7.61822 2.15901C8.04017 1.73705 8.61247 1.5 9.20921 1.5C9.80595 1.5 10.3782 1.73705 10.8002 2.15901C11.2222 2.58097 11.4592 3.15326 11.4592 3.75V4.75H6.95921V3.75ZM9.20921 15C8.7438 15.0001 8.28981 14.856 7.90977 14.5873C7.52973 14.3187 7.24234 13.9388 7.08721 13.5C7.05557 13.4056 7.00547 13.3185 6.93982 13.2437C6.87417 13.1689 6.79429 13.1079 6.70484 13.0643C6.61538 13.0207 6.51814 12.9953 6.41877 12.9896C6.31941 12.984 6.21991 12.9981 6.12608 13.0313C6.03225 13.0645 5.94596 13.116 5.87224 13.1829C5.79852 13.2498 5.73884 13.3306 5.69669 13.4208C5.65454 13.5109 5.63076 13.6086 5.62673 13.708C5.6227 13.8075 5.6385 13.9067 5.67321 14C5.93176 14.7313 6.41069 15.3645 7.04404 15.8124C7.67739 16.2602 8.43401 16.5007 9.20971 16.5007C9.98541 16.5007 10.742 16.2602 11.3754 15.8124C12.0087 15.3645 12.4877 14.7313 12.7462 14C12.8125 13.8124 12.8016 13.6061 12.7158 13.4265C12.63 13.2469 12.4763 13.1088 12.2887 13.0425C12.1011 12.9762 11.8948 12.9871 11.7152 13.0729C11.5356 13.1587 11.3975 13.3124 11.3312 13.5C11.1761 13.9388 10.8887 14.3187 10.5086 14.5873C10.1286 14.856 9.67461 15.0001 9.20921 15Z" fill="white"/>
</svg>
