<svg width="62" height="61" viewBox="0 0 62 61" fill="none" xmlns="http://www.w3.org/2000/svg">
<path d="M52.5542 0.875C53.6652 0.470145 54.8694 0.390894 56.0239 0.646484C57.1783 0.902109 58.2355 1.48251 59.0718 2.31836C59.9081 3.15432 60.4885 4.21177 60.7446 5.36621C61.0007 6.52051 60.9223 7.72384 60.5181 8.83496L60.5132 8.84766L45.7065 53.2266V53.2275C45.3732 54.2368 44.7865 55.1437 44.0024 55.8613C43.2183 56.579 42.2628 57.0832 41.228 57.3262L41.2241 57.3271C40.1928 57.5779 39.1138 57.557 38.0933 57.2656C37.0728 56.9742 36.1452 56.4225 35.4019 55.665L35.3979 55.6611L27.4517 47.752L27.1938 47.4951L26.8696 47.6621L18.5259 51.9795C18.2833 52.1053 18.0118 52.1653 17.7388 52.1543C17.4657 52.1432 17.1999 52.061 16.9683 51.916C16.7366 51.771 16.5467 51.5679 16.4175 51.3271C16.2883 51.0864 16.2238 50.8161 16.231 50.543L16.5679 37.5986L45.5552 16.5449C45.8836 16.3064 46.1624 16.0052 46.3745 15.6592C46.5865 15.3133 46.7279 14.929 46.7915 14.5283C46.855 14.1276 46.8392 13.7178 46.7446 13.3232C46.6499 12.9285 46.4783 12.556 46.2397 12.2275C46.0012 11.8992 45.7 11.6213 45.354 11.4092C45.008 11.1971 44.6239 11.0548 44.2231 10.9912C43.8223 10.9277 43.4127 10.9434 43.0181 11.0381C42.6234 11.1328 42.2508 11.3044 41.9224 11.543L12.5884 32.8506L5.72314 25.9863C5.00912 25.272 4.48291 24.3917 4.19092 23.4248C3.89905 22.4581 3.85011 21.4343 4.04932 20.4443H4.05029L4.05127 20.4365C4.25191 19.3529 4.73731 18.3419 5.45752 17.5078C6.16096 16.6932 7.0644 16.0772 8.07764 15.7168H8.08154L8.15869 15.6904L52.2446 0.973633L52.2554 0.984375L52.5542 0.875Z" fill="#C80D65" stroke="#C80D65"/>
<path d="M56.7616 3.36571L14.16 38.8686M24.1965 48.9497L33.9205 58.6291C34.5177 59.2412 35.2643 59.6867 36.0865 59.9216C36.9087 60.1565 37.778 60.1727 38.6084 59.9685C39.4431 59.7736 40.2137 59.3673 40.8462 58.7888C41.4787 58.2102 41.9519 57.4788 42.2203 56.6646L58.1858 8.80365C58.5199 7.90724 58.5892 6.93374 58.3858 5.99901C58.1823 5.06429 57.7145 4.20773 57.038 3.53131C56.3616 2.85488 55.505 2.38707 54.5703 2.18358C53.6356 1.98009 52.6621 2.04948 51.7657 2.38349L3.90469 18.3535C3.06257 18.641 2.31241 19.148 1.73163 19.8222C1.15086 20.4963 0.7605 21.3133 0.600851 22.1887C0.436816 22.9856 0.473333 23.8107 0.70712 24.59C0.940907 25.3693 1.36464 26.0783 1.94024 26.6533L14.16 38.873L13.7582 54.3475L24.1965 48.9497Z" stroke="#5F002C" stroke-linecap="round" stroke-linejoin="round"/>
</svg>
