<svg width="54" height="54" viewBox="0 0 54 54" fill="none" xmlns="http://www.w3.org/2000/svg">
<path d="M6.08985 53.0871C5.09261 52.8243 4.23195 52.4375 3.43812 51.8958C2.76816 51.4384 1.78883 50.4928 1.41638 49.9438C0.961482 49.273 0.438714 48.1246 0.225527 47.3281C0.00817539 46.5155 0.00484435 46.192 0.000680533 26.6893C-0.0030669 7.28526 0.00130512 6.85847 0.214284 6.02467C0.967727 3.07564 3.30051 0.831969 6.30928 0.162427C7.17432 -0.0299416 45.8187 -0.0634603 46.7518 0.127034C49.2782 0.643972 51.264 2.16314 52.413 4.45845C53.3265 6.28324 53.2449 4.27524 53.2867 25.9406C53.3134 39.7254 53.2888 45.5127 53.201 46.2336C52.7896 49.6074 50.4666 52.2243 47.1239 53.0794C46.2686 53.298 45.9711 53.3013 26.5569 53.2952C7.78556 53.2896 6.82164 53.2798 6.08985 53.0871Z" fill="#F06A35"/>
<path d="M34.2138 42.986C36.6017 42.6604 38.4729 41.7031 40.2284 39.9097C41.4984 38.6123 42.2932 37.2081 42.8129 35.3441C43.0286 34.5699 43.0467 34.1928 43.0862 29.647C43.1162 26.2158 43.0912 24.6088 43.0019 24.2032C42.8724 23.6151 42.5054 23.069 42.0865 22.8414C41.9574 22.7713 41.1317 22.682 40.2513 22.643C38.7758 22.5774 38.6108 22.5487 38.1452 22.2758C37.4066 21.8427 37.2032 21.3756 37.2011 20.1064C37.1971 17.6816 36.188 15.4305 34.1944 13.3985C32.7739 11.9512 31.1894 10.9714 29.381 10.4224C28.948 10.2908 27.9784 10.2461 24.7315 10.208C19.6366 10.1476 18.5058 10.2521 16.7711 10.9429C13.5733 12.2166 11.2759 14.9008 10.4377 18.3422C10.2803 18.9886 10.2497 20.0244 10.2125 25.9751C10.166 33.43 10.2173 34.5247 10.683 36.002C11.0681 37.2226 11.4564 37.9707 12.2563 39.0322C13.7802 41.0548 16.0641 42.5153 18.3475 42.9279C19.4343 43.1242 32.8407 43.1734 34.2138 42.9862" fill="white"/>
<path d="M33.7928 31.3206C34.6741 32.1435 34.4882 33.6086 33.4262 34.2103L32.3346 34.3878L25.8934 34.4624C21.5505 34.503 20.2456 34.4174 19.9789 34.3117L19.9706 34.3081C19.4464 34.0797 18.9584 33.4456 18.874 32.883C18.7937 32.3474 19.0631 31.611 19.4757 31.2373L19.5675 31.1573C19.9743 30.8232 20.4423 30.7632 24.2799 30.7497L28.7179 30.7451C33.2042 30.7485 33.2436 30.8078 33.7928 31.3206ZM27.4694 19.1724C28.1535 19.518 28.4508 20.0052 28.4508 20.7811C28.4508 21.4548 28.1927 21.9345 27.6193 22.3213L27.5081 22.3923C27.2292 22.5589 26.9556 22.5878 24.7931 22.6047L23.3976 22.6126C21.6678 22.6161 20.3362 22.5799 20.1234 22.5212C18.9026 22.1847 18.4464 20.4332 19.3437 19.5274L19.4272 19.4445C19.9075 18.9792 20.2131 18.9311 23.0272 18.9268L25.1479 18.9284C26.94 18.9368 27.083 18.9773 27.4694 19.1724Z" fill="#F06A35"/>
</svg>
